# xmcd CD database file
#
# Track frame offsets:
#	150
#	32896
#	61370
#	95696
#	125307
#	137892
#	169870
#	199001
#	233708
#	257853
#
# Disc length: 3663 seconds
#
# Revision: 0
# Processed by: cddbd v1.5.1PL0 Copyright (c) Steve Scherf et al.
# Submitted via: CDex 1.51
#
DISCID=8e0e4d0a
DTITLE=André Ceccarelli 4tet+ - 61:32
DYEAR=1999
DGENRE=Jazz
TTITLE0=Meeting Point
TTITLE1=Sticks Time
TTITLE2=A.G. Pym Entrevue
TTITLE3=Where Do U Want 2 Go?
TTITLE4=Toco.Bombo.con
TTITLE5=Latino Souvenir
TTITLE6=11th Street East
TTITLE7=#1 Mevicato Martedi
TTITLE8=Instant Blues
TTITLE9=Blue CAB Express
EXTD=YEAR: 1999
EXTT0=
EXTT1=
EXTT2=
EXTT3=
EXTT4=
EXTT5=
EXTT6=
EXTT7=
EXTT8=
EXTT9=
PLAYORDER=
